<svg xmlns="http://www.w3.org/2000/svg" width="65" height="64" fill="none"><path fill="url(#a)" fill-rule="evenodd" d="M1.371 16.978c-.66-1.123-.99-1.684-1.164-2.27a5 5 0 0 1 0-2.846c.174-.585.504-1.147 1.164-2.27.644-1.094.965-1.64 1.38-2.07A5 5 0 0 1 5.168 6.14C5.748 6 6.382 6 7.65 6h48.834c1.205 0 1.807 0 2.359.127a5 5 0 0 1 2.517 1.439c.388.411.694.93 1.304 1.969.627 1.066.94 1.599 1.113 2.152a5 5 0 0 1 0 2.965c-.172.553-.486 1.086-1.113 2.152L38.171 58.45c-.618 1.052-.928 1.578-1.323 1.994a5 5 0 0 1-2.492 1.425c-.559.13-1.169.13-2.389.13-1.22 0-1.83 0-2.389-.13a5 5 0 0 1-2.492-1.425c-.395-.416-.704-.942-1.323-1.994L1.371 16.978z" clip-rule="evenodd"/><defs><radialGradient id="a" cx="0" cy="0" r="1" gradientTransform="rotate(112.182 21.504 18.652) scale(55.2786 102.006)" gradientUnits="userSpaceOnUse"><stop stop-color="#FFA4B4"/><stop offset=".35" stop-color="#FF8C68"/><stop offset="1" stop-color="#FF6C47"/></radialGradient></defs></svg>