<svg width="72" height="72" viewBox="0 0 72 72" fill="none" xmlns="http://www.w3.org/2000/svg">
<path fill-rule="evenodd" clip-rule="evenodd" d="M1.48422 18.4999C0.828965 17.369 0.501338 16.8036 0.307633 16.2222C-0.102545 14.9911 -0.102544 13.6602 0.307634 12.4291C0.501339 11.8477 0.828966 11.2823 1.48422 10.1515C2.1361 9.0265 2.46204 8.464 2.86786 8.00854C3.72716 7.04412 4.87476 6.38276 6.14003 6.12278C6.73758 6.00001 7.38769 6.00001 8.6879 6.00001L63.4646 6C64.6908 6 65.304 6 65.8687 6.10927C67.1833 6.36365 68.375 7.05045 69.2542 8.06035C69.6319 8.49416 69.9392 9.02465 70.554 10.0856C71.172 11.1521 71.481 11.6853 71.6699 12.2313C72.1099 13.5025 72.1099 14.8847 71.6699 16.1558C71.481 16.7018 71.172 17.2351 70.554 18.3015L42.9214 65.9891C42.3487 66.9775 42.0623 67.4717 41.7159 67.8802C40.8152 68.9425 39.5731 69.6584 38.2023 69.9051C37.6751 70 37.104 70 35.9617 70C34.8194 70 34.2482 70 33.721 69.9051C32.3503 69.6584 31.1081 68.9425 30.2074 67.8802C29.861 67.4717 29.5746 66.9775 29.0019 65.9891L1.48422 18.4999Z" fill="url(#paint0_radial_403_1328)"/>
<defs>
<radialGradient id="paint0_radial_403_1328" cx="0" cy="0" r="1" gradientTransform="matrix(-23.4779 58.5 -111.237 -31.613 52.7547 5.75003)" gradientUnits="userSpaceOnUse">
<stop stop-color="#FFA4B4"/>
<stop offset="0.350264" stop-color="#FF8C68"/>
<stop offset="1" stop-color="#FF6C47"/>
</radialGradient>
</defs>
</svg>
